<?xml version="1.0" standalone="no"?>
<!DOCTYPE svg PUBLIC "-//W3C//DTD SVG 20010904//EN"
 "http://www.w3.org/TR/2001/REC-SVG-20010904/DTD/svg10.dtd">
<svg version="1.0" xmlns="http://www.w3.org/2000/svg"
 width="1274.000000pt" height="1280.000000pt" viewBox="0 0 1274.000000 1280.000000"
 preserveAspectRatio="xMidYMid meet">
<metadata>
Created by potrace 1.15, written by Peter Selinger 2001-2017
</metadata>
<g transform="translate(0.000000,1280.000000) scale(0.100000,-0.100000)"
fill="#000000" stroke="none">
<path d="M6280 11969 l0 -297 -22 -6 c-13 -3 -53 -6 -89 -6 -170 0 -557 -49
-804 -101 -269 -57 -628 -162 -817 -240 -39 -16 -72 -29 -74 -29 -1 0 -5 8 -7
18 -4 14 -5 14 -6 -3 -1 -16 -25 -30 -108 -66 -60 -25 -109 -45 -110 -44 -1 0
2 19 8 40 10 37 50 84 94 113 18 11 18 11 -2 2 -28 -13 -28 -11 -2 37 15 28
16 31 2 13 -10 -14 -35 -43 -55 -66 -21 -23 -46 -59 -55 -80 l-18 -39 -5 170
-5 170 -14 -130 c-7 -71 -16 -136 -19 -144 -3 -8 -13 6 -24 35 -21 53 -98 174
-125 195 -13 11 -12 7 4 -16 49 -71 90 -175 107 -272 l5 -32 -36 25 c-43 29
-56 30 -74 7 -11 -15 -11 -16 1 -5 8 6 20 12 27 12 17 0 83 -59 83 -74 0 -7
-37 -32 -82 -55 l-81 -43 -19 24 c-21 27 -55 114 -70 180 -10 40 -9 51 6 74
10 14 26 29 36 31 15 4 16 8 7 18 -9 10 -18 4 -41 -27 -25 -34 -28 -45 -23
-86 3 -26 9 -56 13 -67 4 -11 -19 14 -50 55 -62 81 -90 112 -62 67 34 -56 156
-291 152 -295 -2 -2 -21 7 -43 21 -21 13 -65 34 -98 46 -127 47 -173 89 -207
186 -12 35 -17 42 -18 25 0 -33 41 -120 68 -144 12 -10 20 -22 17 -25 -2 -4
35 -24 83 -44 48 -20 104 -47 125 -60 l38 -23 -108 -63 c-90 -53 -356 -226
-442 -288 l-24 -18 7 53 c11 81 61 225 112 318 25 46 44 84 41 84 -2 0 -34
-45 -71 -100 -62 -92 -136 -242 -136 -276 0 -24 -15 -15 -34 21 -11 19 -39 51
-63 71 -60 49 -73 72 -82 146 -8 63 -8 63 -10 14 -1 -66 18 -127 49 -151 50
-39 79 -77 99 -129 29 -78 19 -104 -60 -165 l-66 -51 -89 26 c-197 57 -232
103 -158 210 31 45 37 61 39 121 2 37 2 55 -1 38 -9 -61 -27 -111 -56 -153
l-30 -44 -18 30 c-19 31 -97 69 -122 59 -8 -4 -7 -6 5 -6 27 -1 80 -30 99 -55
11 -13 18 -39 18 -69 0 -38 5 -53 25 -73 25 -25 200 -114 224 -114 19 0 12
-18 -15 -39 l-26 -20 -59 29 c-67 34 -81 32 -16 -2 l42 -23 -123 -7 c-68 -3
-126 -9 -128 -11 -3 -2 40 -7 93 -10 54 -3 108 -9 120 -14 20 -7 17 -12 -39
-62 l-61 -55 -30 18 c-23 13 -27 13 -18 2 11 -13 8 -16 -16 -21 -49 -11 -50
-15 0 -9 26 3 47 3 47 1 0 -3 -51 -58 -114 -122 l-114 -117 -17 26 c-23 34
-31 26 -12 -11 15 -28 14 -29 -60 -113 -609 -695 -1030 -1539 -1208 -2425 -37
-188 -69 -394 -63 -418 2 -11 23 0 77 44 40 32 77 57 81 54 4 -2 18 8 31 23
l24 27 -30 -25 -30 -25 30 33 c16 18 35 30 41 28 7 -3 22 7 35 22 l24 27 -26
-20 c-14 -11 -10 -5 8 13 19 18 37 30 42 28 5 -3 17 4 27 17 l19 22 -25 -19
c-14 -11 -8 -2 13 18 21 20 41 34 46 32 5 -3 17 4 27 17 19 22 19 22 -2 7 -11
-8 -7 -2 8 13 16 15 33 25 37 23 5 -3 17 4 27 17 l19 22 -25 -20 c-21 -16 -20
-14 5 13 16 18 35 30 41 28 7 -3 22 7 35 22 l24 27 -26 -20 c-14 -11 -10 -5 8
13 19 18 37 31 42 28 4 -3 19 7 32 22 l24 27 -26 -20 c-14 -11 -10 -5 8 13 19
18 37 31 42 28 4 -3 19 7 32 22 l24 27 -25 -20 c-21 -16 -21 -15 3 8 15 15 32
25 36 23 5 -3 17 4 27 17 l19 22 -25 -20 c-21 -16 -20 -14 5 13 16 18 35 30
43 27 7 -2 11 -1 8 4 -3 4 4 17 17 27 21 19 21 19 7 -1 -14 -18 -14 -19 2 -6
10 7 16 17 13 21 -7 11 22 33 33 26 5 -3 20 7 33 22 l24 27 -26 -20 c-14 -11
-10 -5 8 13 19 18 37 31 42 28 4 -3 19 7 32 22 l24 27 -30 -25 -30 -25 30 33
c16 18 35 30 41 28 7 -3 22 7 35 22 l24 27 -30 -25 -30 -25 30 33 c16 18 35
30 43 27 7 -2 11 -1 8 4 -7 11 72 84 83 77 4 -3 19 7 32 22 l24 27 -30 -25
-30 -25 30 33 c16 18 35 30 41 28 7 -3 20 5 31 17 18 22 18 22 -3 7 -11 -8 -3
2 19 22 29 28 43 35 56 29 14 -8 447 -432 1077 -1054 146 -144 183 -176 187
-161 3 11 22 75 41 144 61 216 203 549 227 534 7 -4 9 -3 6 4 -10 15 3 43 16
35 6 -3 7 -1 3 5 -9 15 18 55 29 44 5 -4 5 -2 1 5 -4 7 1 24 10 38 21 32 48
32 186 1 133 -30 244 -43 234 -28 -4 6 -45 39 -92 73 -46 34 -83 63 -82 65 12
11 335 -64 418 -98 l45 -18 -63 59 c-70 66 -211 142 -352 190 -46 16 -86 33
-87 38 -2 5 11 22 29 38 l33 30 -25 -30 -25 -30 27 24 c15 13 25 28 22 35 -6
14 221 240 233 233 6 -4 21 6 34 21 l24 27 -30 -25 -30 -24 31 32 c17 19 39
35 50 36 10 2 19 9 19 17 0 8 9 14 20 14 11 0 20 7 20 15 0 8 9 15 20 15 11 0
20 7 20 15 0 8 8 15 17 15 9 0 20 4 25 9 5 5 2 6 -7 2 -8 -4 -6 -1 4 8 10 8
23 13 28 10 5 -3 7 0 6 8 -2 7 5 12 14 12 10 -1 15 2 12 7 -5 8 9 13 28 10 5
0 7 5 5 12 -1 6 6 11 15 11 10 -1 15 3 11 9 -4 6 0 8 10 4 10 -4 16 -2 14 6
-1 7 6 11 15 11 10 -1 16 1 13 5 -6 11 54 43 67 35 7 -5 8 -3 3 6 -6 10 -4 12
9 7 9 -4 15 -3 12 2 -8 13 160 94 175 85 7 -4 9 -3 5 4 -11 17 246 111 441
161 89 23 291 56 401 66 l72 7 0 -308 0 -309 103 103 c57 56 105 100 108 98 3
-3 95 86 204 197 l200 202 -205 -200 -205 -200 204 207 c113 114 208 205 213
202 5 -3 7 0 6 8 -2 7 3 12 10 10 6 -1 11 4 10 10 -2 7 3 12 10 10 8 -1 11 1
8 6 -7 12 133 164 145 156 5 -3 8 0 7 8 -2 7 3 12 10 10 8 -1 11 1 8 6 -3 4
113 125 257 268 l262 259 -255 -260 -255 -260 257 254 c141 140 254 259 252
263 -7 10 176 199 186 193 3 -2 51 41 106 96 54 54 95 99 90 99 -4 0 4 14 19
31 26 31 26 32 7 53 -10 11 -389 448 -842 970 -453 521 -845 971 -871 1000
l-48 51 -1 -296z m1730 -1812 c0 -1 -44 -45 -97 -97 l-98 -95 95 98 c88 90
100 102 100 94z"/>
<path d="M6962 11631 c2 -5 265 -309 584 -677 320 -368 594 -684 609 -702 l28
-33 -155 -157 c-793 -806 -1048 -1067 -1048 -1074 0 -4 8 -8 18 -8 28 0 304
-87 412 -130 216 -86 409 -194 446 -250 21 -31 35 -41 70 -48 47 -10 121 -54
102 -61 -6 -2 -24 -19 -40 -37 -25 -28 -34 -32 -59 -27 -32 6 -112 -23 -103
-38 3 -5 23 -13 45 -19 46 -13 82 3 94 39 3 10 17 26 30 35 23 15 25 14 54
-15 26 -26 36 -29 62 -24 26 6 36 2 65 -26 35 -34 37 -57 2 -38 -24 13 -112
-7 -102 -23 4 -6 25 -18 47 -28 37 -17 42 -17 64 -3 12 8 23 22 23 29 0 32 34
8 124 -88 286 -308 479 -631 601 -1009 31 -97 85 -309 85 -336 0 -5 -23 -17
-51 -27 -34 -11 -69 -35 -101 -67 l-49 -49 -224 0 c-124 0 -225 -3 -225 -8 0
-7 1521 -1510 1707 -1686 l94 -88 57 49 c333 287 1827 1585 1890 1642 45 41
82 79 82 83 0 4 -117 8 -260 8 l-260 0 0 53 c0 60 -21 253 -45 412 -66 443
-203 912 -386 1322 -39 87 -73 163 -75 170 -4 8 2 10 16 6 11 -3 41 2 67 12
l46 18 -34 18 c-42 23 -68 23 -97 3 -21 -14 -23 -14 -34 10 -9 21 -8 29 5 44
24 26 21 32 -13 32 -23 0 -33 6 -42 24 -9 21 -6 32 16 70 14 25 34 50 44 55
15 8 14 11 -11 20 -40 15 -82 14 -97 -4 -10 -12 -16 -13 -26 -4 -8 6 -14 17
-14 23 0 23 46 56 77 56 23 0 39 9 64 37 28 33 30 38 15 41 -44 9 -82 -8 -99
-43 -9 -19 -28 -42 -42 -51 -24 -16 -27 -16 -40 2 -9 11 -13 29 -9 43 3 13 8
37 11 53 l6 30 -32 -16 -31 -17 -30 48 -31 48 23 6 c13 3 39 14 57 24 l35 17
-33 14 c-43 18 -75 18 -91 -1 -16 -19 -34 -6 -49 37 l-11 31 48 -6 47 -5 -40
13 c-22 8 -50 14 -62 14 -30 1 -29 14 2 31 33 17 25 24 -9 9 -22 -10 -29 -10
-42 3 -14 14 -9 21 49 74 57 52 107 124 107 154 0 14 -72 -16 -87 -37 -7 -9
-13 -28 -13 -41 0 -21 3 -23 27 -17 35 8 31 5 -46 -45 -34 -22 -66 -38 -70
-36 -5 3 -27 30 -50 60 -31 39 -41 61 -36 75 3 11 1 39 -6 63 l-11 43 -24 -30
-24 -30 7 50 c4 34 13 55 28 67 19 15 51 98 39 98 -3 0 -22 -9 -43 -20 -39
-19 -51 -36 -51 -69 0 -10 -8 -25 -17 -34 -17 -14 -24 -8 -103 85 -47 55 -86
104 -88 108 -2 4 50 64 115 131 125 133 106 121 -44 -26 l-93 -90 -25 26 -26
25 20 47 c24 56 19 62 -7 10 -19 -36 -20 -36 -31 -15 -7 13 -15 20 -20 18 -4
-3 -36 24 -71 59 -50 51 -62 67 -52 77 15 15 15 65 -2 103 l-13 30 -22 -43
c-12 -24 -20 -51 -16 -60 3 -10 -16 4 -42 31 l-48 47 22 38 c16 30 20 48 16
81 l-6 42 -24 -23 c-40 -38 -45 -54 -28 -94 8 -21 14 -38 13 -40 -2 -1 -34 26
-72 60 l-69 62 13 36 c8 21 10 47 6 64 l-8 29 -19 -24 c-20 -25 -25 -66 -9
-76 6 -3 10 -11 10 -16 0 -6 -33 16 -72 49 -260 211 -599 428 -925 591 -517
259 -1036 422 -1616 506 -187 27 -220 30 -215 16z m4126 -2698 c-21 -23 -23
-23 -35 -7 -19 26 -17 29 22 30 l35 1 -22 -24z"/>
<path d="M3552 11360 c0 -14 2 -19 5 -12 2 6 2 18 0 25 -3 6 -5 1 -5 -13z"/>
<path d="M10266 10374 c-3 -9 -6 -33 -6 -54 0 -29 6 -43 22 -54 31 -22 35 -20
43 15 5 24 1 39 -20 70 -15 21 -29 39 -30 39 -2 0 -6 -7 -9 -16z"/>
<path d="M10503 10288 c-33 -34 -41 -69 -24 -96 6 -11 14 -9 35 10 24 20 27
29 24 71 l-3 48 -32 -33z"/>
<path d="M10193 10268 c-33 -34 -39 -52 -27 -82 8 -21 27 -20 48 3 12 13 16
32 14 66 l-3 46 -32 -33z"/>
<path d="M10616 10226 c-32 -32 -33 -44 -1 -52 25 -6 80 20 105 51 10 13 9 15
-11 15 -13 0 -34 3 -46 6 -15 4 -29 -2 -47 -20z"/>
<path d="M10363 10165 c-34 -14 -53 -41 -53 -74 0 -41 65 -15 85 34 25 59 21
63 -32 40z"/>
<path d="M10468 10099 c-44 -25 4 -57 57 -38 42 15 43 22 10 37 -31 14 -45 15
-67 1z"/>
<path d="M10441 9938 c-6 -17 -11 -41 -11 -53 0 -25 34 -60 48 -51 20 12 23
57 6 92 -22 47 -30 49 -43 12z"/>
<path d="M10740 9924 c-39 -17 -50 -30 -50 -61 0 -47 60 -21 90 37 23 45 17
49 -40 24z"/>
<path d="M10703 9748 c-33 -34 -41 -69 -23 -98 8 -13 13 -11 35 11 22 22 26
33 23 73 l-3 47 -32 -33z"/>
<path d="M10842 9470 l-23 -19 32 -16 c29 -16 35 -16 75 0 24 9 44 20 44 25 0
10 -56 30 -84 30 -12 -1 -31 -9 -44 -20z"/>
<path d="M7716 8541 c-3 -5 12 -21 33 -35 38 -27 82 -29 97 -4 14 22 -29 48
-77 48 -26 0 -50 -4 -53 -9z"/>
<path d="M4580 8253 l-95 -98 98 95 c90 88 102 100 94 100 -1 0 -45 -44 -97
-97z"/>
<path d="M8183 8223 c-18 -9 -33 -20 -33 -24 0 -3 21 -12 46 -19 44 -13 46
-12 72 14 23 22 25 28 12 36 -22 14 -60 11 -97 -7z"/>
<path d="M1949 7537 c-349 -303 -807 -701 -1016 -883 l-381 -331 91 -7 c49 -3
190 -6 312 -6 l223 0 6 -127 c28 -522 114 -984 271 -1448 30 -88 68 -193 85
-234 16 -41 30 -78 30 -82 0 -5 -11 -9 -25 -9 -31 0 -31 -3 4 -67 24 -43 26
-51 11 -43 -20 11 -107 11 -154 1 l-29 -6 42 -38 c23 -21 57 -45 75 -54 31
-14 36 -14 80 6 42 18 46 22 36 41 -12 22 -7 25 19 10 25 -13 52 -84 46 -118
-4 -20 -3 -22 3 -8 7 16 23 -9 87 -130 238 -456 502 -826 867 -1216 l137 -146
-70 -22 c-56 -17 -68 -24 -60 -34 9 -10 8 -15 -5 -20 -8 -3 -17 -6 -19 -6 -2
0 -17 25 -34 55 -18 31 -35 53 -40 51 -14 -9 -44 -133 -38 -155 3 -12 4 -21 2
-21 -1 0 -22 7 -45 15 -24 8 -45 13 -48 11 -2 -3 2 -23 11 -44 l15 -38 -39
-46 c-54 -63 -60 -83 -41 -140 8 -27 21 -48 27 -48 7 0 27 16 44 35 28 32 31
43 31 98 0 34 4 57 8 50 10 -16 57 -33 94 -33 30 0 31 1 25 39 -4 34 -2 40 17
45 42 11 60 5 107 -39 40 -37 55 -45 86 -45 21 1 51 6 66 13 l28 12 -25 38
-25 37 29 0 c29 0 30 -2 30 -43 0 -50 17 -77 65 -106 l36 -21 9 26 c15 39 12
87 -7 114 l-17 25 31 -25 c440 -353 685 -515 1083 -714 544 -272 1119 -443
1735 -516 189 -23 230 -89 -391 625 -301 347 -579 667 -617 713 l-70 83 198
199 c109 109 202 197 207 194 5 -3 7 0 6 8 -2 7 3 12 9 11 7 -2 12 3 10 10 -1
6 4 11 11 9 8 -1 11 1 8 6 -7 12 153 184 165 176 5 -3 8 0 7 8 -2 7 3 12 10
10 8 -1 11 1 8 6 -3 5 99 111 227 238 l232 229 -225 -230 -225 -230 227 224
c125 124 225 228 222 233 -3 4 18 33 47 63 34 36 47 56 38 59 -8 2 -65 16
-128 31 -352 83 -712 258 -1000 486 -69 55 -72 59 -45 60 24 1 22 3 -15 13
-25 6 -46 16 -48 22 -2 6 31 30 72 53 42 24 74 46 71 48 -2 3 -13 0 -24 -6
-10 -5 -42 -19 -70 -30 l-51 -20 62 91 c47 68 76 100 117 126 l55 36 -68 21
c-67 20 -67 20 -40 32 25 12 117 123 108 131 -9 9 -151 -21 -167 -35 -9 -8
-24 -37 -33 -63 -14 -41 -22 -51 -57 -65 -67 -26 -235 -52 -250 -37 -9 9 -8
12 8 12 12 0 49 18 82 40 60 38 62 39 62 16 0 -12 3 -25 6 -29 8 -8 73 19 95
39 18 16 54 133 48 153 -2 6 -32 -6 -71 -29 -53 -32 -68 -47 -73 -71 -6 -26
-11 -30 -28 -25 -86 25 -124 28 -155 12 -29 -15 -32 -15 -32 -1 0 12 -6 15
-20 10 -14 -5 -26 0 -38 15 -18 22 -17 23 37 79 l56 56 -70 5 -70 5 60 40 c75
49 142 68 215 60 30 -4 52 -4 48 1 -4 4 -36 10 -70 13 l-63 6 45 27 c65 40 42
34 -51 -13 -45 -22 -83 -38 -85 -36 -7 7 167 167 181 167 21 0 56 46 80 106
13 33 21 60 17 62 -17 6 -128 -48 -144 -70 -11 -14 -18 -44 -19 -74 -2 -48 -4
-52 -43 -77 -23 -14 -74 -53 -113 -87 -40 -33 -73 -59 -73 -57 0 3 6 20 14 38
32 78 23 78 -14 0 -37 -78 -42 -84 -57 -69 -14 15 -14 19 6 47 19 26 21 41 19
111 l-3 81 -37 -34 c-21 -19 -38 -34 -38 -32 0 17 36 95 53 115 l22 25 -24
-20 c-24 -20 -24 -20 -18 0 3 11 8 38 12 60 l7 40 16 -40 c8 -22 16 -41 18
-43 1 -2 13 7 26 20 43 40 51 65 43 135 -7 64 -7 64 -27 46 -55 -49 -80 -95
-103 -187 -13 -51 -32 -110 -42 -130 l-19 -37 -43 91 c-33 68 -41 94 -32 103
16 16 14 32 -2 18 -8 -6 -17 -8 -20 -4 -13 12 -7 20 15 18 35 -3 88 34 106 74
9 20 18 38 19 40 2 3 14 -6 27 -18 l25 -23 20 33 c12 19 21 48 21 65 0 35 -58
156 -71 148 -5 -3 -18 -35 -29 -72 -19 -62 -24 -69 -67 -92 -49 -26 -78 -74
-70 -117 8 -42 -11 -24 -28 27 -16 47 -16 51 5 97 19 43 58 99 123 176 24 28
25 29 55 13 41 -21 61 -20 119 5 46 20 47 21 28 35 -11 9 -39 20 -62 27 -24 6
-43 14 -43 17 0 3 12 12 26 21 23 14 31 14 67 2 22 -8 52 -11 67 -8 29 6 139
99 130 109 -3 3 -40 7 -82 8 -69 3 -79 1 -102 -21 l-25 -24 6 72 c3 39 3 71
-1 71 -19 0 -107 -87 -117 -115 -9 -25 -22 -36 -59 -49 -87 -31 -122 -73 -113
-133 6 -38 26 -42 75 -17 27 14 23 7 -28 -53 -33 -37 -69 -82 -81 -98 l-22
-30 -1 37 c0 20 11 68 25 105 26 72 26 99 1 39 -9 -20 -23 -53 -33 -73 l-16
-38 -22 85 -21 85 43 27 c27 18 45 37 49 55 10 43 14 45 40 29 32 -22 39 -20
52 9 22 47 14 84 -29 146 -23 32 -45 59 -50 59 -4 0 -11 -21 -15 -47 -6 -38
-16 -55 -59 -97 l-52 -51 -17 101 c-9 56 -16 131 -16 168 l0 66 285 0 c157 0
285 4 285 8 0 10 -1789 1772 -1798 1772 -4 0 -293 -249 -643 -553z m2230
-1657 c0 -8 -16 -28 -34 -43 l-34 -28 27 61 c20 45 28 56 34 43 3 -10 7 -25 7
-33z m547 -1130 c-39 -37 -82 -51 -99 -34 -6 6 110 71 130 73 7 1 -7 -17 -31
-39z m-13 -67 l32 -16 -50 -13 c-53 -14 -95 -51 -95 -85 0 -26 -12 -24 -41 7
l-24 27 30 -7 c25 -5 22 -2 -15 18 -25 13 -53 33 -63 44 -19 20 -18 21 20 27
21 3 45 8 53 10 45 9 124 3 153 -12z m73 -41 c-18 -16 -18 -16 -6 6 6 13 14
21 18 18 3 -4 -2 -14 -12 -24z m-118 -138 c-9 -9 -21 -13 -28 -9 -14 9 5 25
30 25 12 0 12 -3 -2 -16z"/>
<path d="M2384 8018 l-19 -23 23 19 c12 11 22 21 22 23 0 8 -8 2 -26 -19z"/>
<path d="M11100 5648 c-316 -275 -655 -569 -752 -654 -97 -85 -181 -154 -185
-154 -4 0 -262 250 -573 555 -310 304 -565 553 -566 552 -1 -1 -14 -55 -29
-120 -35 -156 -111 -376 -180 -523 -52 -111 -172 -324 -182 -324 -2 0 -21 11
-41 25 -20 14 -40 25 -44 25 -12 0 -9 -39 6 -97 8 -29 11 -53 7 -53 -5 0 -12
-9 -17 -21 -8 -17 -12 -7 -23 55 -7 42 -16 76 -20 76 -11 0 -81 -102 -81 -117
0 -23 -25 -19 -79 14 -30 18 -59 33 -64 33 -10 0 0 -51 19 -99 19 -45 19 -42
-26 -97 -44 -54 -51 -93 -25 -144 9 -18 11 -31 5 -35 -6 -3 -10 0 -10 7 0 16
-47 108 -65 127 -10 11 -15 4 -28 -35 -31 -99 -31 -109 4 -149 24 -27 29 -39
20 -48 -8 -8 -11 -7 -11 5 0 9 -22 41 -50 71 -30 33 -50 64 -50 78 0 25 -25
128 -33 136 -3 2 -21 -22 -41 -54 -24 -39 -36 -51 -36 -37 0 21 -69 136 -88
148 -11 7 -32 -75 -32 -125 0 -42 14 -63 57 -90 25 -16 38 -19 41 -11 5 15 22
16 22 1 0 -7 10 -27 21 -46 l21 -34 24 22 24 22 0 -55 c0 -45 4 -58 25 -78 18
-17 22 -27 14 -34 -7 -8 -16 -5 -28 11 -14 16 -21 19 -30 10 -8 -8 -11 -8 -11
1 0 6 -10 37 -21 68 l-22 57 -18 -24 -18 -24 -4 45 c-3 38 -4 36 -4 -15 -1
-33 -6 -73 -12 -88 -17 -43 -13 -67 15 -104 14 -19 23 -37 19 -41 -4 -4 -15 5
-26 20 -11 14 -28 37 -38 49 l-18 23 -12 -52 c-6 -29 -11 -66 -11 -82 0 -35
-1 -35 -41 -15 l-30 16 24 29 c27 32 72 119 65 126 -3 2 -27 -3 -54 -11 -27
-8 -52 -15 -56 -15 -4 0 -9 21 -11 48 l-3 47 -2 -52 c-2 -57 -22 -75 -22 -20
0 24 -11 45 -46 85 -25 28 -50 52 -55 52 -5 0 -9 -12 -9 -27 0 -16 -3 -45 -6
-65 l-7 -37 -19 25 c-25 31 -138 90 -138 72 0 -19 27 -103 40 -128 6 -12 26
-28 43 -36 l32 -14 -35 5 c-19 3 -48 2 -63 -3 l-29 -8 43 -53 c24 -29 56 -59
72 -66 l29 -12 -50 -6 c-41 -5 -63 0 -122 24 -40 16 -76 29 -81 29 -5 0 1 -24
12 -52 12 -29 24 -59 27 -67 4 -11 0 -11 -18 2 -25 18 -117 23 -153 8 -16 -6
-11 -14 37 -59 59 -56 82 -62 143 -40 35 13 41 26 21 46 -9 9 -4 9 23 2 18 -6
47 -10 63 -10 27 0 28 2 23 35 l-6 35 46 -31 46 -32 -24 -13 c-14 -8 -38 -11
-57 -7 -29 5 -33 3 -30 -13 2 -14 -9 -21 -57 -34 -33 -9 -92 -31 -131 -48
-117 -52 -354 -107 -551 -127 l-63 -7 0 301 c0 166 -3 301 -7 301 -5 0 -251
-246 -548 -547 -297 -301 -695 -704 -884 -895 l-343 -347 22 -28 c12 -15 412
-477 888 -1026 l867 -998 3 299 2 299 103 7 c439 29 936 125 1305 250 l73 25
-34 -39 c-28 -33 -67 -124 -67 -155 0 -5 17 7 38 27 44 44 109 58 264 58 108
0 185 13 240 41 52 27 63 24 39 -10 -23 -32 -28 -90 -9 -109 18 -18 24 -15 23
15 0 26 6 30 78 55 74 25 106 44 133 77 10 12 18 11 59 -8 33 -15 79 -25 149
-31 55 -5 117 -14 136 -20 41 -12 245 -50 272 -50 22 0 -9 30 -111 103 -35 26
-59 47 -55 47 66 0 354 -70 418 -101 50 -24 53 -24 30 2 -101 113 -337 227
-542 263 -46 7 -86 16 -88 19 -9 8 -33 159 -34 204 0 37 4 43 36 62 19 12 41
18 47 15 7 -4 9 -4 5 1 -11 11 60 58 74 49 7 -5 8 -3 3 6 -6 10 -4 12 8 7 9
-3 19 -1 23 5 5 7 2 8 -7 4 -8 -4 -3 2 11 13 14 11 30 19 37 16 7 -2 15 1 19
7 5 7 2 8 -6 3 -9 -6 -11 -4 -6 4 5 7 14 10 22 7 8 -3 13 0 11 7 -1 7 6 12 15
12 9 0 20 4 25 9 5 5 2 6 -7 2 -8 -4 -4 2 10 13 14 11 32 19 40 18 8 -1 15 5
15 13 0 8 8 15 17 15 9 0 20 4 25 9 5 5 2 6 -6 1 -10 -6 -12 -4 -7 4 5 7 14
10 22 7 7 -3 16 0 20 6 5 7 2 8 -7 3 -12 -8 -12 -6 0 8 7 10 21 16 30 15 8 -2
16 4 16 12 0 8 9 15 20 15 11 0 20 7 20 15 0 8 8 15 17 15 10 0 23 7 30 15 11
12 10 12 -7 0 -19 -14 -19 -14 -6 3 8 10 20 16 27 13 7 -3 18 3 26 12 12 16
11 16 -7 2 -20 -15 -20 -15 -1 8 11 12 25 21 32 18 7 -3 18 3 26 12 12 16 11
16 -7 2 -20 -15 -20 -15 -1 8 11 12 25 21 32 18 7 -3 18 3 26 12 12 15 11 16
-7 3 -11 -7 -7 -2 8 13 16 14 32 24 36 21 5 -2 17 5 27 18 19 22 19 22 -2 7
-11 -8 -7 -2 8 13 16 15 33 25 37 23 4 -3 19 7 32 22 l24 27 -26 -20 c-14 -11
-8 -3 13 18 21 21 42 36 46 33 5 -3 42 29 82 69 41 41 70 75 65 75 -5 0 4 13
20 30 15 16 32 27 37 24 5 -3 7 0 6 8 -2 7 3 12 10 10 8 -1 11 1 8 6 -3 5 21
33 52 63 l57 54 -50 -55 -50 -55 52 49 c29 27 50 53 47 58 -3 4 14 27 38 51
24 24 32 29 18 12 l-25 -30 32 29 c17 15 29 34 27 40 -3 7 8 23 23 36 l28 25
-20 -25 -20 -25 22 19 c13 10 20 22 18 27 -3 4 7 20 21 36 15 15 20 19 13 8
-13 -18 -12 -19 3 -7 9 8 15 19 12 26 -3 7 6 21 18 32 23 19 23 19 8 -1 -14
-18 -14 -19 2 -6 10 7 16 17 13 21 -3 4 3 16 13 27 9 10 13 12 7 3 -9 -13 -8
-13 7 -2 9 8 15 19 12 26 -3 7 3 19 12 27 15 12 17 12 9 0 -5 -10 -4 -12 4 -7
6 4 9 11 6 15 -2 5 3 17 11 27 9 10 12 13 8 5 -5 -9 -3 -12 5 -7 6 4 9 11 6
15 -2 5 3 17 11 27 9 10 12 13 8 5 -5 -10 -3 -12 5 -7 7 5 10 10 7 13 -8 8 14
44 23 38 5 -2 8 3 7 13 0 9 5 16 12 14 6 -1 11 1 11 5 -3 19 2 34 9 29 5 -3 9
0 9 7 0 19 34 68 43 62 4 -3 7 3 6 13 0 9 4 16 10 15 7 -1 11 5 10 15 0 9 5
16 12 14 8 -1 11 2 7 7 -8 14 25 62 38 54 6 -3 7 -1 3 5 -9 15 18 55 29 44 5
-4 5 -2 1 5 -8 14 33 85 45 77 5 -3 6 3 2 12 -5 13 -3 15 7 9 8 -5 11 -4 7 3
-8 12 53 123 64 117 4 -3 6 1 5 8 0 6 47 109 106 227 207 419 347 824 437
1271 56 272 96 597 89 720 l-3 66 -575 -499z m-2665 -897 c17 -35 16 -36 -47
-45 l-48 -7 0 33 c0 33 1 34 35 30 21 -3 35 0 35 7 0 19 9 12 25 -18z m-65
-87 c11 -13 9 -19 -11 -40 l-25 -24 4 40 c4 43 12 49 32 24z m-719 -359 c32
-17 36 -39 14 -69 -14 -19 -15 -18 -36 9 -12 15 -36 33 -53 41 -27 11 -28 13
-8 14 18 0 22 6 22 32 0 32 0 32 16 10 8 -12 28 -29 45 -37z m88 -126 c6 -18
11 -33 11 -35 0 -2 -14 -11 -32 -20 -30 -15 -32 -15 -45 2 -14 19 -18 66 -6
77 3 4 19 7 34 7 21 0 29 -7 38 -31z m-112 -16 c-3 -2 -16 -1 -29 3 l-23 8 25
6 c23 6 39 -4 27 -17z m2503 -1496 c0 -1 -33 -34 -72 -72 l-73 -70 70 73 c64
67 75 77 75 69z m-1499 -1044 c-5 -10 -25 -37 -45 -59 -38 -45 -25 -41 -216
-60 l-55 -5 95 39 c52 22 124 53 160 70 36 17 66 31 68 31 1 1 -2 -7 -7 -16z"/>
<path d="M4467 5688 c-65 -22 -83 -43 -93 -107 l-7 -44 42 6 42 5 -35 -38
c-52 -58 -58 -74 -46 -118 15 -57 24 -66 48 -53 47 25 62 59 62 140 0 69 4 84
35 141 53 99 50 102 -48 68z"/>
<path d="M4550 5073 c-13 -9 -32 -25 -43 -36 -18 -18 -18 -19 0 -32 17 -13 16
-14 -11 -15 -30 0 -96 -58 -96 -85 0 -18 70 -40 102 -32 36 9 142 88 129 96
-6 4 15 20 49 36 33 16 60 31 60 34 0 10 -114 51 -141 51 -13 0 -35 -8 -49
-17z"/>
<path d="M8391 5036 c-39 -56 -41 -83 -14 -126 l20 -32 22 28 c31 39 34 63 19
124 l-14 54 -33 -48z"/>
<path d="M7636 4674 c-3 -8 -6 -46 -6 -83 0 -72 7 -84 72 -124 26 -16 26 -16
37 15 19 54 13 84 -27 135 -54 67 -68 78 -76 57z"/>
<path d="M7757 4588 c24 -126 47 -158 114 -161 34 -2 34 -2 33 40 0 27 -8 51
-20 64 -18 21 -117 89 -128 89 -3 0 -3 -15 1 -32z"/>
<path d="M4885 4518 c-25 -13 -65 -49 -65 -58 0 -3 18 -17 41 -29 28 -16 50
-21 70 -17 39 8 129 47 129 56 0 10 -116 60 -138 60 -9 0 -26 -6 -37 -12z"/>
<path d="M4955 2798 l-190 -193 193 190 c105 104 192 191 192 192 0 8 -19 -11
-195 -189z"/>
<path d="M2021 2644 c-30 -8 -57 -16 -59 -19 -7 -7 120 -85 140 -85 15 0 18
-8 18 -52 0 -29 6 -60 13 -68 13 -17 71 -60 81 -60 10 0 28 82 22 105 -3 12
-19 39 -36 60 l-31 39 22 17 22 17 -43 31 c-48 34 -69 37 -149 15z"/>
<path d="M2291 2540 c-17 -36 -31 -74 -31 -85 0 -22 49 -105 62 -105 3 0 17
15 30 33 30 42 28 95 -4 167 l-25 55 -32 -65z"/>
<path d="M1908 2459 c-41 -11 -129 -62 -121 -69 15 -14 107 -40 139 -40 25 0
43 9 69 36 36 36 36 36 15 51 -31 22 -72 31 -102 22z"/>
<path d="M2058 2328 c-32 -17 -58 -35 -58 -39 0 -8 121 -49 146 -49 15 0 94
67 94 80 0 13 -66 40 -97 40 -15 0 -54 -15 -85 -32z"/>
</g>
</svg>
